<svg width="50" height="51" viewBox="0 0 50 51" fill="none" xmlns="http://www.w3.org/2000/svg">
<g clip-path="url(#clip0_26_201)">
<path d="M0 25.9091C0 27.6215 0.172656 29.2936 0.500684 30.9091L25 32.4309L49.4994 30.9091C49.8275 29.2936 50 27.6215 50 25.9091C50 24.1967 49.8273 22.5246 49.4994 20.9091L25 19.3873L0.500684 20.9091C0.172656 22.5246 0 24.1967 0 25.9091H0Z" fill="#0052B4"/>
<path d="M49.4994 30.9091H0.500671C2.81698 42.3202 12.9054 50.9091 25 50.9091C37.0946 50.9091 47.183 42.3202 49.4994 30.9091Z" fill="#F0F0F0"/>
<path d="M0.500671 20.9091H49.4995C47.183 9.49796 37.0948 0.909088 25 0.909088C12.9052 0.909088 2.81698 9.49796 0.500671 20.9091Z" fill="black"/>
<path d="M35.8696 20.9091H14.1305L18.5719 18.8198L16.2068 14.5186L21.0295 15.4409L21.6408 10.569L25 14.1524L28.3594 10.569L28.9703 15.4409L33.7933 14.5186L31.4283 18.82L35.8696 20.9091Z" fill="#FFDA44"/>
<path d="M0 25.9091C0 39.7161 11.193 50.9091 25 50.9091L4.99961 10.9082C1.86055 15.0868 0 20.2805 0 25.9091Z" fill="#A2001D"/>
<path d="M25 50.9091C38.807 50.9091 50 39.7161 50 25.9091C50 20.2805 48.1395 15.0868 45.0004 10.9082L25 50.9091Z" fill="#A2001D"/>
</g>
<defs>
<clipPath id="clip0_26_201">
<rect width="50" height="50" fill="white" transform="translate(0 0.909088)"/>
</clipPath>
</defs>
</svg>
